<svg id="Capa_1" enable-background="new 0 0 512 512" height="512" viewBox="0 0 512 512" width="512" xmlns="http://www.w3.org/2000/svg"><g><circle cx="478" cy="348" r="10"/><path d="m498.475 318.845c5.417 1.137 10.71-2.33 11.846-7.725 1.114-5.292 1.68-10.716 1.68-16.12 0-35.295-24.629-62.813-50.55-75.835-5.103-25.563-22.645-48.05-46.629-60.002.782-4.662 1.179-9.4 1.179-14.163 0-44.732-34.73-81.504-78.644-84.765-10.647-35.34-43.66-60.235-81.357-60.235-37.57 0-70.575 24.908-81.327 60.26-43.923 3.251-78.673 40.001-78.673 84.74 0 4.755.396 9.484 1.176 14.139-24.002 11.904-41.517 34.244-46.591 59.635-30.474 14.448-50.585 44.411-50.585 76.226 0 46.075 40.757 85 89 85 12.612 0 25.567-2.802 37-7.786v119.786h-116c-5.523 0-10 4.477-10 10s4.477 10 10 10h492c5.522 0 10-4.477 10-10s-4.478-10-10-10h-116v-119.786c11.433 4.984 24.387 7.786 37 7.786 5.628 0 11.311-.554 16.889-1.647 5.42-1.062 8.953-6.316 7.892-11.736-1.062-5.42-6.322-8.951-11.735-7.891-4.317.845-8.706 1.274-13.046 1.274-13.1 0-26.572-3.787-37-10.266v-99.734c0-5.523-4.478-10-10-10s-10 4.477-10 10v43.82l-45.528-22.764c-4.939-2.47-10.947-.467-13.416 4.472-2.47 4.94-.468 10.947 4.473 13.417l54.471 27.235v33.602c-10.435 6.696-22.437 10.218-35 10.218-35.841 0-65-29.159-65-65 0-35.923 29.101-65 65-65 4.364 0 8.744.438 13.02 1.302 5.405 1.093 10.688-2.407 11.782-7.821 1.094-5.413-2.407-10.688-7.821-11.782-5.577-1.128-11.29-1.699-16.981-1.699-5.285 0-10.489.501-15.592 1.448 9.49-24.456 33.259-41.448 60.602-41.448 33.376 0 62.485 25.317 66.513 57.287 2.014 15.65-1.972 32.693-12.506 46.704-3.318 4.415-2.431 10.684 1.984 14.002 4.423 3.325 10.69 2.421 14.002-1.984 9.473-12.6 15.127-27.262 16.604-42.802 15.844 11.367 29.393 29.839 29.393 51.793 0 4.022-.421 8.059-1.25 11.999-1.139 5.404 2.32 10.708 7.725 11.846zm-409.475 41.155c-36.757 0-69-30.374-69-65 0-35.318 32.636-65 69-65 5.049 0 11.226.535 15.02 1.302 5.412 1.094 10.688-2.408 11.782-7.821s-2.408-10.688-7.821-11.782c-6.204-1.254-14.102-1.699-18.981-1.699-5.162 0-10.291.477-15.363 1.379 10.146-24.582 35.203-41.379 62.373-41.379 32.895 0 60.637 24.589 64.534 57.221 1.98 16.239-2.184 33.013-12.527 46.77-3.319 4.414-2.431 10.683 1.983 14.002 4.423 3.326 10.69 2.422 14.002-1.983 9.429-12.541 15.074-27.125 16.582-42.585 15.799 12.119 25.416 31.038 25.416 51.575 0 35.841-29.159 65-65 65-12.563 0-24.565-3.522-35-10.218v-99.782c0-5.523-4.477-10-10-10s-10 4.477-10 10v43.82l-45.528-22.764c-4.94-2.47-10.947-.467-13.417 4.472-2.47 4.94-.468 10.947 4.472 13.417l54.473 27.235v33.554c-10.428 6.48-23.9 10.266-37 10.266zm57 12.495c10.898 4.938 22.746 7.505 35 7.505 26.054 0 49.395-11.793 65-30.31v142.31h-100zm185 7.505c12.254 0 24.102-2.567 35-7.505v119.505h-100v-142.31c15.605 18.517 38.946 30.31 65 30.31zm-38.509-160.775c-10.319 5.238-19.271 12.417-26.491 20.98v-74.025l54.472-27.236c4.94-2.47 6.942-8.477 4.473-13.417-2.47-4.94-8.48-6.943-13.416-4.472l-45.529 22.765v-43.82c0-5.523-4.478-10-10-10s-10 4.477-10 10v140.201c-7.218-8.564-16.167-15.744-26.482-20.985-7.468-39.832-42.402-69.216-83.508-69.216-6.627 0-13.186.753-19.603 2.24-.265-2.397-.407-4.813-.407-7.24 0-32.478 23.944-59.469 55.106-64.248-.07 1.415-.106 2.832-.106 4.248 0 15.211 4.066 30.137 11.759 43.165 2.809 4.756 8.94 6.334 13.696 3.526s6.334-8.94 3.526-13.696c-5.876-9.949-8.981-21.359-8.981-32.995 0-36.387 29.73-65 65-65 30.914 0 57.7 21.853 63.692 51.961.891 4.476 4.299 8.023 11.308 8.039 35.841 0 65 29.159 65 65 0 2.429-.141 4.847-.407 7.245-6.417-1.491-12.969-2.245-19.583-2.245-41.114 0-76.054 29.388-83.519 69.225z"/></g></svg>