<?xml version="1.0"?>
<svg xmlns="http://www.w3.org/2000/svg" id="Layer_1_copy_2" data-name="Layer 1 copy 2" viewBox="0 0 64 64" width="512" height="512"><path d="M14,18a1,1,0,0,0,0-2H10V10.869l4.445,2.963a1,1,0,1,0,1.109-1.664L10,8.465v-3.6l4.445,2.963a1,1,0,1,0,1.109-1.664L10,2.465V1A1,1,0,0,0,8,1V2.465l-5.555,3.7A1,1,0,1,0,3.555,7.832L8,4.869v3.6l-5.555,3.7a1,1,0,0,0,1.109,1.664L8,10.869V16H1a1,1,0,0,0,0,2Z"/><path d="M63,55l-6.938,0C49.159,54.57,49,50.179,49,50V23a7.008,7.008,0,0,0-7-7H27V10.869l4.445,2.963a1,1,0,1,0,1.109-1.664L27,8.465v-3.6l4.445,2.963a1,1,0,1,0,1.109-1.664L27,2.465V1a1,1,0,0,0-2,0V2.465l-5.555,3.7a1,1,0,1,0,1.109,1.664L25,4.869v3.6l-5.555,3.7a1,1,0,0,0,1.109,1.664L25,10.869V16H19a1,1,0,0,0,0,2H38.88l-11.2,8H18a1,1,0,0,0-.781,1.625L23.919,36H7a1,1,0,0,0-1,1V48H1a1,1,0,0,0,0,2H7a1,1,0,0,0,1-1V45h2a5.006,5.006,0,0,1,5,5v7a7.008,7.008,0,0,0,7,7h3a1,1,0,0,0,0-2H22a5.006,5.006,0,0,1-5-5V50a7.008,7.008,0,0,0-7-7H8V38h9a5.006,5.006,0,0,1,5,5v6a1,1,0,0,0,2,0V43a6.976,6.976,0,0,0-2.111-5H26a5.006,5.006,0,0,1,5,5V55a7.008,7.008,0,0,0,7,7h6a1,1,0,0,0,0-2H38a5.006,5.006,0,0,1-5-5V43a7,7,0,0,0-6.5-6.975L20.081,28H35a5.006,5.006,0,0,1,5,5V48a1,1,0,0,0,2,0V33a7.008,7.008,0,0,0-7-7H31.12l11.16-7.972A4.993,4.993,0,0,1,47,23V50c0,.064.1,6.446,9,7h7a1,1,0,0,0,0-2Z"/><path d="M23,53a1,1,0,0,0-1,1v4a1,1,0,0,0,2,0V54A1,1,0,0,0,23,53Z"/><path d="M8,22a1,1,0,0,0-1-1H4a1,1,0,0,0,0,2H7A1,1,0,0,0,8,22Z"/><path d="M15,22a1,1,0,0,0-1-1H11a1,1,0,0,0,0,2h3A1,1,0,0,0,15,22Z"/><path d="M2,29a1,1,0,0,0,0,2H5a1,1,0,0,0,0-2Z"/><path d="M9,31h3a1,1,0,0,0,0-2H9a1,1,0,0,0,0,2Z"/><path d="M41,50a1,1,0,0,0-1,1v4a1,1,0,0,0,2,0V51A1,1,0,0,0,41,50Z"/><path d="M56,47a1,1,0,0,0,1-1V44a1,1,0,0,0-2,0v2A1,1,0,0,0,56,47Z"/><path d="M3,59V55a1,1,0,0,0-2,0v4a1,1,0,0,0,2,0Z"/><path d="M10,63V59a1,1,0,0,0-2,0v4a1,1,0,0,0,2,0Z"/><path d="M59,38V36a1,1,0,0,0-2,0v2a1,1,0,0,0,2,0Z"/><path d="M29,64h2a1,1,0,0,0,0-2H29a1,1,0,0,0,0,2Z"/><path d="M50.969,62a1,1,0,0,0,0-2H50a1,1,0,0,0,0,2Z"/><path d="M54.844,62a1,1,0,0,0,0-2h-.969a1,1,0,0,0,0,2Z"/></svg>
