<?xml version="1.0" encoding="iso-8859-1"?>
<!-- Generator: Adobe Illustrator 19.0.0, SVG Export Plug-In . SVG Version: 6.00 Build 0)  -->
<svg version="1.1" id="Capa_1" xmlns="http://www.w3.org/2000/svg" xmlns:xlink="http://www.w3.org/1999/xlink" x="0px" y="0px"
	 viewBox="0 0 512 512" style="enable-background:new 0 0 512 512;" xml:space="preserve">
<g>
	<g>
		<path d="M447.433,154.65c0.403-4.36,0.606-8.741,0.606-13.121C448.039,63.49,384.583,0,306.585,0
			c-44.391,0-85.729,20.633-112.441,55.654C131.076,47.893,74.83,93.005,66.982,154.352C29.383,158.368,0,190.297,0,228.962
			c0,41.375,33.645,75.036,75,75.036h362c41.355,0,75-33.661,75-75.036C512,191.128,483.868,159.744,447.433,154.65z M437,273.998
			H75c-24.813,0-45-20.203-45-45.036s20.187-45.036,45-45.036h6.057c8.284,0,15-6.716,15-15c0-53.158,49.086-93.528,101.741-82.268
			c6.051,1.293,12.264-1.255,15.663-6.417C234.185,48.782,268.997,30,306.585,30c61.456,0,111.454,50.032,111.454,111.529
			c0,8.127-0.885,16.257-2.63,24.165c-2.063,9.349,5.061,18.232,14.647,18.232H437c24.813,0,45,20.203,45,45.036
			S461.813,273.998,437,273.998z"/>
	</g>
</g>
<g>
	<g>
		<path d="M269.797,324.884c-7.781-2.834-16.392,1.18-19.226,8.965L202.22,466.691c-2.833,7.785,1.181,16.392,8.966,19.225
			c7.78,2.833,16.392-1.179,19.226-8.965l48.351-132.842C281.596,336.324,277.582,327.717,269.797,324.884z"/>
	</g>
</g>
<g>
	<g>
		<path d="M191.465,324.884c-7.784-2.836-16.393,1.18-19.226,8.965l-17.334,47.624c-2.833,7.785,1.181,16.392,8.966,19.225
			c7.78,2.833,16.392-1.179,19.226-8.965l17.334-47.624C203.264,336.324,199.25,327.717,191.465,324.884z"/>
	</g>
</g>
<g>
	<g>
		<path d="M311.025,426.824c-7.785-2.835-16.392,1.18-19.226,8.965l-20.41,56.077c-2.833,7.785,1.181,16.392,8.966,19.225
			c7.777,2.832,16.39-1.175,19.226-8.965l20.41-56.077C322.824,438.265,318.811,429.657,311.025,426.824z"/>
	</g>
</g>
<g>
	<g>
		<path d="M348.129,324.884c-7.781-2.834-16.392,1.18-19.226,8.965l-16.693,45.864c-2.833,7.785,1.181,16.392,8.966,19.225
			c7.78,2.833,16.392-1.179,19.226-8.965l16.693-45.864C359.928,336.324,355.914,327.717,348.129,324.884z"/>
	</g>
</g>
<g>
</g>
<g>
</g>
<g>
</g>
<g>
</g>
<g>
</g>
<g>
</g>
<g>
</g>
<g>
</g>
<g>
</g>
<g>
</g>
<g>
</g>
<g>
</g>
<g>
</g>
<g>
</g>
<g>
</g>
</svg>
