<svg id="Capa_1" enable-background="new 0 0 512 512" height="512" viewBox="0 0 512 512" width="512" xmlns="http://www.w3.org/2000/svg"><path d="m502 372c-35.42 0-64.78 26.443-69.375 60.625-30.905 4.154-55.48 28.556-59.908 59.375h-106.717v-82h50c35.424 0 64.767-26.456 69.356-60.644 34.188-4.589 60.644-33.932 60.644-69.356 0-27.341-16.123-52.026-40.314-63.394 6.84-18.034 10.314-37.025 10.314-56.606 0-88.224-71.776-160-160-160s-160 71.776-160 160c0 84.865 66.417 154.498 150 159.678v172.322h-76v-5c0-38.684-26.122-72.158-63.009-81.991-9.833-36.887-43.307-63.009-81.991-63.009h-15c-5.523 0-10 4.477-10 10v150c0 5.523 4.477 10 10 10h492c5.523 0 10-4.477 10-10v-120c0-5.523-4.477-10-10-10zm-186 18h-50v-70.316c16.054-.98 31.659-4.329 46.606-9.998 9.84 20.94 29.66 35.826 52.542 39.45-4.307 23.221-24.699 40.864-49.148 40.864zm110-110c0 24.146-17.205 44.348-40 48.994v-48.994c0-5.523-4.477-10-10-10s-10 4.477-10 10v48.978c-22.999-4.737-40-24.948-40-48.978 0-27.57 22.43-50 50-50 4.68 0 9.302.644 13.738 1.914.003.001.007.002.011.003 21.344 6.083 36.251 25.856 36.251 48.083zm-310-120c0-77.196 62.804-140 140-140s140 62.804 140 140c0 17.599-3.195 34.648-9.499 50.795-3.462-.523-6.971-.795-10.501-.795-38.598 0-70 31.402-70 70 0 3.531.272 7.04.794 10.501-13.069 5.102-26.73 8.158-40.794 9.14v-100.367c33.877-4.869 60-34.072 60-69.274v-30c0-5.523-4.477-10-10-10s-10 4.477-10 10v30c0 24.146-17.205 44.348-40 48.994v-73.995c0-5.523-4.477-10-10-10s-10 4.477-10 10v103.995c-22.795-4.646-40-24.847-40-48.994v-30c0-5.523-4.477-10-10-10s-10 4.477-10 10v30c0 35.202 26.123 64.406 60 69.274v70.365c-72.547-5.145-130-65.805-130-139.639zm326 292c5.523 0 10-4.477 10-10 0-24.146 17.206-44.349 40-48.996v98.996h-98.994c4.646-22.795 24.848-40 48.994-40zm-422-90h5c31.287 0 58.117 22.366 63.795 53.183.752 4.079 3.943 7.27 8.022 8.022 30.817 5.678 53.183 32.508 53.183 63.795v5h-130z"/><circle cx="256" cy="59.999" r="10"/></svg>